<svg width="20" height="20" viewBox="0 0 20 20" fill="none" xmlns="http://www.w3.org/2000/svg">
<path d="M17.475 5.16798L10.6 1.40626C10.4163 1.30477 10.2099 1.25153 10 1.25153C9.79013 1.25153 9.58369 1.30477 9.4 1.40626L2.525 5.16954C2.32866 5.27697 2.16477 5.43514 2.05043 5.62753C1.93609 5.81993 1.87551 6.03949 1.875 6.26329V13.7352C1.87551 13.959 1.93609 14.1785 2.05043 14.3709C2.16477 14.5633 2.32866 14.7215 2.525 14.8289L9.4 18.5922C9.58369 18.6937 9.79013 18.7469 10 18.7469C10.2099 18.7469 10.4163 18.6937 10.6 18.5922L17.475 14.8289C17.6713 14.7215 17.8352 14.5633 17.9496 14.3709C18.0639 14.1785 18.1245 13.959 18.125 13.7352V6.26408C18.1249 6.03987 18.0645 5.81982 17.9502 5.62698C17.8358 5.43414 17.6717 5.2756 17.475 5.16798ZM10 2.50001L16.2766 5.93751L13.9508 7.21095L7.67344 3.77345L10 2.50001ZM10 9.37501L3.72344 5.93751L6.37187 4.48751L12.6484 7.92501L10 9.37501ZM3.125 7.03126L9.375 10.4516V17.1539L3.125 13.736V7.03126ZM16.875 13.7328L10.625 17.1539V10.4547L13.125 9.08673V11.875C13.125 12.0408 13.1908 12.1997 13.3081 12.317C13.4253 12.4342 13.5842 12.5 13.75 12.5C13.9158 12.5 14.0747 12.4342 14.1919 12.317C14.3092 12.1997 14.375 12.0408 14.375 11.875V8.40236L16.875 7.03126V13.732V13.7328Z" fill="white"/>
</svg>
