<svg width="24" height="24" viewBox="0 0 24 24" fill="none" xmlns="http://www.w3.org/2000/svg">
<path fill-rule="evenodd" clip-rule="evenodd" d="M11.5 3.75C7.21979 3.75 3.75 7.21979 3.75 11.5C3.75 15.7802 7.21979 19.25 11.5 19.25C13.5892 19.25 15.4853 18.4234 16.879 17.0793C16.9053 17.0407 16.9355 17.0039 16.9698 16.9697C17.004 16.9354 17.0408 16.9052 17.0794 16.8789C18.4234 15.4852 19.25 13.5891 19.25 11.5C19.25 7.21979 15.7802 3.75 11.5 3.75ZM18.5497 17.489C19.922 15.8752 20.75 13.7843 20.75 11.5C20.75 6.39137 16.6086 2.25 11.5 2.25C6.39137 2.25 2.25 6.39137 2.25 11.5C2.25 16.6086 6.39137 20.75 11.5 20.75C13.7843 20.75 15.8753 19.9219 17.489 18.5496L20.4697 21.5303C20.7626 21.8232 21.2374 21.8232 21.5303 21.5303C21.8232 21.2374 21.8232 20.7626 21.5303 20.4697L18.5497 17.489Z" fill="#C6C8D2"/>
</svg>
